<?xml version="1.0" encoding="utf-8"?>
<!-- Generator: Adobe Illustrator 16.0.0, SVG Export Plug-In . SVG Version: 6.00 Build 0)  -->
<!DOCTYPE svg PUBLIC "-//W3C//DTD SVG 1.1//EN" "http://www.w3.org/Graphics/SVG/1.1/DTD/svg11.dtd">
<svg version="1.1" xmlns="http://www.w3.org/2000/svg" xmlns:xlink="http://www.w3.org/1999/xlink" x="0px" y="0px" width="26px"
	 height="100px" viewBox="0 0 26 100" enable-background="new 0 0 26 100" xml:space="preserve">
<g id="Layer_1" display="none">
	<g display="inline">
		<g>
			<path fill="#8A8A89" d="M12.408,25V13.092H0.5C0.801,19.523,5.978,24.699,12.408,25z"/>
			<path fill="#8A8A89" d="M0.5,11.908h11.908V0C5.978,0.301,0.801,5.478,0.5,11.908z"/>
			<path fill="#8A8A89" d="M25.5,13.092H13.592V25C20.024,24.699,25.2,19.523,25.5,13.092z"/>
			<path fill="#8A8A89" d="M25.5,11.908C25.2,5.478,20.024,0.301,13.592,0v11.908H25.5z"/>
		</g>
		<g>
			<path fill="#8A8A89" d="M12.408,50V38.092H0.5C0.801,44.523,5.978,49.699,12.408,50z"/>
			<path fill="#8A8A89" d="M0.5,36.909h11.908V25C5.978,25.302,0.801,30.478,0.5,36.909z"/>
			<path fill="#FFFFFF" stroke="#8A8A89" stroke-width="0.25" stroke-miterlimit="10" d="M25.5,38.092H13.592V50
				C20.024,49.699,25.2,44.523,25.5,38.092z"/>
			<path fill="#8A8A89" d="M25.5,36.909C25.2,30.478,20.024,25.302,13.592,25v11.908H25.5z"/>
		</g>
		<g>
			<path fill="#8A8A89" d="M12.408,75V63.093H0.5C0.801,69.522,5.978,74.7,12.408,75z"/>
			<path fill="#8A8A89" d="M0.5,61.908h11.908V50C5.978,50.302,0.801,55.479,0.5,61.908z"/>
			<path fill="#FFFFFF" stroke="#8A8A89" stroke-width="0.25" stroke-miterlimit="10" d="M25.5,63.093H13.592V75
				C20.024,74.7,25.2,69.522,25.5,63.093z"/>
			<path fill="#FFFFFF" stroke="#8A8A89" stroke-width="0.25" stroke-miterlimit="10" d="M25.5,61.908
				C25.2,55.479,20.024,50.302,13.592,50v11.908H25.5z"/>
		</g>
		<g>
			<path fill="#8A8A89" d="M12.408,100V88.092H0.5C0.801,94.523,5.978,99.699,12.408,100z"/>
			<path fill="#FFFFFF" stroke="#8A8A89" stroke-width="0.25" stroke-miterlimit="10" d="M0.5,86.908h11.908V75
				C5.978,75.301,0.801,80.479,0.5,86.908z"/>
			<path fill="#FFFFFF" stroke="#8A8A89" stroke-width="0.25" stroke-miterlimit="10" d="M25.5,88.092H13.592V100
				C20.024,99.699,25.2,94.523,25.5,88.092z"/>
			<path fill="#FFFFFF" stroke="#8A8A89" stroke-width="0.25" stroke-miterlimit="10" d="M25.5,86.908
				C25.2,80.479,20.024,75.301,13.592,75v11.908H25.5z"/>
		</g>
	</g>
</g>
<g id="Layer_2">
	<g>
		<path fill="#C8CAC9" d="M13,25C6.107,25,0.5,19.393,0.5,12.5S6.107,0,13,0s12.5,5.607,12.5,12.5S19.893,25,13,25z M13,1
			C6.659,1,1.5,6.159,1.5,12.5S6.659,24,13,24c6.341,0,11.5-5.159,11.5-11.5S19.341,1,13,1z M13,21.632
			c-5.036,0-9.132-4.097-9.132-9.132c0-5.035,4.097-9.131,9.132-9.131c5.036,0,9.133,4.096,9.133,9.131
			C22.133,17.536,18.036,21.632,13,21.632z M13,4.369c-4.484,0-8.132,3.648-8.132,8.131c0,4.484,3.648,8.132,8.132,8.132
			s8.133-3.648,8.133-8.132C21.133,8.017,17.484,4.369,13,4.369z"/>
		<g>
			<path fill="#414247" d="M4.368,12.5H1c0,6.627,5.373,12,12,12v-3.368C8.232,21.132,4.368,17.267,4.368,12.5z"/>
			<path fill="#414247" d="M13,3.869V0.5c-6.627,0-12,5.373-12,12h3.368C4.368,7.733,8.232,3.869,13,3.869z"/>
			<path fill="#414247" d="M21.633,12.5c0,4.767-3.865,8.632-8.633,8.632V24.5c6.627,0,12-5.373,12-12H21.633z"/>
			<path fill="#414247" d="M21.633,12.5H25c0-6.627-5.373-12-12-12v3.369C17.768,3.869,21.633,7.733,21.633,12.5z"/>
		</g>
	</g>
	<g>
		<path fill="#C8CAC9" d="M13,50C6.107,50,0.5,44.393,0.5,37.5S6.107,25,13,25s12.5,5.607,12.5,12.5S19.893,50,13,50z M13,26
			C6.658,26,1.5,31.159,1.5,37.5S6.658,49,13,49c6.341,0,11.5-5.159,11.5-11.5S19.341,26,13,26z M13,46.632
			c-5.035,0-9.132-4.097-9.132-9.132c0-5.035,4.097-9.131,9.132-9.131c5.036,0,9.133,4.096,9.133,9.131
			C22.133,42.536,18.036,46.632,13,46.632z M13,29.369c-4.484,0-8.132,3.648-8.132,8.131c0,4.484,3.648,8.132,8.132,8.132
			s8.133-3.648,8.133-8.132C21.133,33.017,17.484,29.369,13,29.369z"/>
		<g>
			<path fill="#414247" d="M4.368,37.5H1c0,6.627,5.373,12,12,12v-3.368C8.232,46.132,4.368,42.267,4.368,37.5z"/>
			<path fill="#414247" d="M13,28.869V25.5c-6.627,0-12,5.373-12,12h3.368C4.368,32.733,8.232,28.869,13,28.869z"/>
			<path fill="#C8CAC9" d="M21.633,37.5c0,4.767-3.865,8.632-8.633,8.632V49.5c6.627,0,12-5.373,12-12H21.633z"/>
			<path fill="#414247" d="M21.633,37.5H25c0-6.627-5.373-12-12-12v3.369C17.768,28.869,21.633,32.733,21.633,37.5z"/>
		</g>
	</g>
	<g>
		<path fill="#C8CAC9" d="M13,75.001c-6.893,0-12.5-5.607-12.5-12.5C0.5,55.607,6.107,50,13,50s12.5,5.607,12.5,12.501
			C25.5,69.394,19.893,75.001,13,75.001z M13,51C6.658,51,1.5,56.159,1.5,62.501c0,6.34,5.158,11.5,11.5,11.5
			c6.341,0,11.5-5.16,11.5-11.5C24.5,56.159,19.341,51,13,51z M13,71.632c-5.035,0-9.132-4.096-9.132-9.131
			c0-5.036,4.097-9.133,9.132-9.133c5.036,0,9.133,4.097,9.133,9.133C22.133,67.536,18.036,71.632,13,71.632z M13,54.368
			c-4.484,0-8.132,3.648-8.132,8.133S8.516,70.632,13,70.632s8.133-3.646,8.133-8.131S17.484,54.368,13,54.368z"/>
		<g>
			<path fill="#414247" d="M4.368,62.501H1c0,6.627,5.373,12,12,12v-3.369C8.232,71.132,4.368,67.267,4.368,62.501z"/>
			<path fill="#414247" d="M13,53.868V50.5c-6.627,0-12,5.372-12,12.001h3.368C4.368,57.733,8.232,53.868,13,53.868z"/>
			<path fill="#C8CAC9" d="M21.633,62.501c0,4.766-3.865,8.631-8.633,8.631v3.369c6.627,0,12-5.373,12-12H21.633z"/>
			<path fill="#C8CAC9" d="M21.633,62.501H25C25,55.872,19.627,50.5,13,50.5v3.368C17.768,53.868,21.633,57.733,21.633,62.501z"/>
		</g>
	</g>
	<g>
		<path fill="#C8CAC9" d="M13,100.001c-6.893,0-12.5-5.607-12.5-12.5C0.5,80.607,6.107,75,13,75s12.5,5.607,12.5,12.501
			C25.5,94.394,19.893,100.001,13,100.001z M13,76C6.658,76,1.5,81.159,1.5,87.501c0,6.34,5.158,11.5,11.5,11.5
			c6.341,0,11.5-5.16,11.5-11.5C24.5,81.159,19.341,76,13,76z M13,96.632c-5.035,0-9.132-4.096-9.132-9.131
			c0-5.036,4.097-9.133,9.132-9.133c5.036,0,9.133,4.097,9.133,9.133C22.133,92.536,18.036,96.632,13,96.632z M13,79.368
			c-4.484,0-8.132,3.648-8.132,8.133S8.516,95.632,13,95.632s8.133-3.646,8.133-8.131S17.484,79.368,13,79.368z"/>
		<g>
			<path fill="#414247" d="M4.368,87.501H1c0,6.627,5.373,12,12,12v-3.369C8.232,96.132,4.368,92.267,4.368,87.501z"/>
			<path fill="#C8CAC9" d="M13,78.868V75.5c-6.627,0-12,5.372-12,12.001h3.368C4.368,82.733,8.232,78.868,13,78.868z"/>
			<path fill="#C8CAC9" d="M21.633,87.501c0,4.766-3.865,8.631-8.633,8.631v3.369c6.627,0,12-5.373,12-12H21.633z"/>
			<path fill="#C8CAC9" d="M21.633,87.501H25C25,80.872,19.627,75.5,13,75.5v3.368C17.768,78.868,21.633,82.733,21.633,87.501z"/>
		</g>
	</g>
</g>
<g id="Layer_3">
</g>
</svg>
