<?xml version="1.0" encoding="utf-8"?>
<!-- Generator: Adobe Illustrator 16.0.0, SVG Export Plug-In . SVG Version: 6.00 Build 0)  -->
<!DOCTYPE svg PUBLIC "-//W3C//DTD SVG 1.1//EN" "http://www.w3.org/Graphics/SVG/1.1/DTD/svg11.dtd">
<svg version="1.1" xmlns="http://www.w3.org/2000/svg" xmlns:xlink="http://www.w3.org/1999/xlink" x="0px" y="0px" width="26px"
	 height="100px" viewBox="0 0 26 100" enable-background="new 0 0 26 100" xml:space="preserve">
<g id="Layer_1" display="none">
	<g display="inline">
		<g>
			<path fill="#8A8A89" d="M12.408,25V13.092H0.5C0.801,19.523,5.978,24.699,12.408,25z"/>
			<path fill="#8A8A89" d="M0.5,11.908h11.908V0C5.978,0.301,0.801,5.478,0.5,11.908z"/>
			<path fill="#8A8A89" d="M25.5,13.092H13.592V25C20.024,24.699,25.2,19.523,25.5,13.092z"/>
			<path fill="#8A8A89" d="M25.5,11.908C25.2,5.478,20.024,0.301,13.592,0v11.908H25.5z"/>
		</g>
		<g>
			<path fill="#8A8A89" d="M12.408,50V38.092H0.5C0.801,44.523,5.978,49.699,12.408,50z"/>
			<path fill="#8A8A89" d="M0.5,36.909h11.908V25C5.978,25.302,0.801,30.478,0.5,36.909z"/>
			<path fill="#FFFFFF" stroke="#8A8A89" stroke-width="0.25" stroke-miterlimit="10" d="M25.5,38.092H13.592V50
				C20.024,49.699,25.2,44.523,25.5,38.092z"/>
			<path fill="#8A8A89" d="M25.5,36.909C25.2,30.478,20.024,25.302,13.592,25v11.908H25.5z"/>
		</g>
		<g>
			<path fill="#8A8A89" d="M12.408,75V63.093H0.5C0.801,69.522,5.978,74.7,12.408,75z"/>
			<path fill="#8A8A89" d="M0.5,61.908h11.908V50C5.978,50.302,0.801,55.479,0.5,61.908z"/>
			<path fill="#FFFFFF" stroke="#8A8A89" stroke-width="0.25" stroke-miterlimit="10" d="M25.5,63.093H13.592V75
				C20.024,74.7,25.2,69.522,25.5,63.093z"/>
			<path fill="#FFFFFF" stroke="#8A8A89" stroke-width="0.25" stroke-miterlimit="10" d="M25.5,61.908
				C25.2,55.479,20.024,50.302,13.592,50v11.908H25.5z"/>
		</g>
		<g>
			<path fill="#8A8A89" d="M12.408,100V88.092H0.5C0.801,94.523,5.978,99.699,12.408,100z"/>
			<path fill="#FFFFFF" stroke="#8A8A89" stroke-width="0.25" stroke-miterlimit="10" d="M0.5,86.908h11.908V75
				C5.978,75.301,0.801,80.479,0.5,86.908z"/>
			<path fill="#FFFFFF" stroke="#8A8A89" stroke-width="0.25" stroke-miterlimit="10" d="M25.5,88.092H13.592V100
				C20.024,99.699,25.2,94.523,25.5,88.092z"/>
			<path fill="#FFFFFF" stroke="#8A8A89" stroke-width="0.25" stroke-miterlimit="10" d="M25.5,86.908
				C25.2,80.479,20.024,75.301,13.592,75v11.908H25.5z"/>
		</g>
	</g>
</g>
<g id="Layer_2">
	<g>
		<path fill="none" d="M4.868,12.5h-0.5c0,4.767,3.865,8.632,8.632,8.632v-0.5C8.516,20.632,4.868,16.984,4.868,12.5z"/>
		<path fill="none" d="M13,20.632v0.5c4.768,0,8.633-3.865,8.633-8.632h-0.5C21.133,16.984,17.484,20.632,13,20.632z"/>
		<path fill="none" d="M13,4.369v-0.5c-4.768,0-8.632,3.864-8.632,8.631h0.5C4.868,8.017,8.516,4.369,13,4.369z"/>
		<path fill="none" d="M1,12.5H0.5C0.5,19.393,6.107,25,13,25v-0.5C6.373,24.5,1,19.127,1,12.5z"/>
		<path fill="none" d="M13,24.5V25c6.893,0,12.5-5.607,12.5-12.5H25C25,19.127,19.627,24.5,13,24.5z"/>
		<path fill="none" d="M13,0.5V0C6.107,0,0.5,5.607,0.5,12.5H1C1,5.873,6.373,0.5,13,0.5z"/>
		<path fill="none" d="M13,3.869v0.5c4.484,0,8.133,3.648,8.133,8.131h0.5C21.633,7.733,17.768,3.869,13,3.869z"/>
		<path fill="#C8CAC9" d="M13,0v0.5c6.627,0,12,5.373,12,12h0.5C25.5,5.607,19.893,0,13,0z"/>
		<path fill="#414247" d="M4.368,12.5h-0.5H1.5H1c0,6.627,5.373,12,12,12V24v-2.368v-0.5C8.232,21.132,4.368,17.267,4.368,12.5z"/>
		<path fill="#414247" d="M1,12.5h0.5h2.368h0.5c0-4.767,3.865-8.631,8.632-8.631v-0.5V1V0.5C6.373,0.5,1,5.873,1,12.5z"/>
		<path fill="#414247" d="M24.5,12.5h-2.367h-0.5c0,4.767-3.865,8.632-8.633,8.632v0.5V24v0.5c6.627,0,12-5.373,12-12H24.5z"/>
		<path fill="#414247" d="M13,0.5V1v2.369v0.5c4.768,0,8.633,3.864,8.633,8.631h0.5H24.5H25C25,5.873,19.627,0.5,13,0.5z"/>
	</g>
	<g>
		<path fill="none" d="M4.868,87.5h-0.5c0,4.768,3.865,8.633,8.632,8.633v-0.5C8.516,95.633,4.868,91.984,4.868,87.5z"/>
		<path fill="none" d="M13,95.633v0.5c4.768,0,8.633-3.865,8.633-8.633h-0.5C21.133,91.984,17.484,95.633,13,95.633z"/>
		<path fill="none" d="M13,79.369v-0.5c-4.768,0-8.632,3.863-8.632,8.631h0.5C4.868,83.017,8.516,79.369,13,79.369z"/>
		<path fill="none" d="M1,87.5H0.5C0.5,94.393,6.107,100,13,100v-0.5C6.373,99.5,1,94.127,1,87.5z"/>
		<path fill="none" d="M13,99.5v0.5c6.893,0,12.5-5.607,12.5-12.5H25C25,94.127,19.627,99.5,13,99.5z"/>
		<path fill="none" d="M13,75.5V75C6.107,75,0.5,80.607,0.5,87.5H1C1,80.873,6.373,75.5,13,75.5z"/>
		<path fill="none" d="M13,78.869v0.5c4.484,0,8.133,3.647,8.133,8.131h0.5C21.633,82.732,17.768,78.869,13,78.869z"/>
		<path fill="none" d="M13,75v0.5c6.627,0,12,5.373,12,12h0.5C25.5,80.607,19.893,75,13,75z"/>
		<path fill="#414247" d="M4.368,87.5h-0.5H1.5H1c0,6.627,5.373,12,12,12V99v-2.367v-0.5C8.232,96.133,4.368,92.268,4.368,87.5z"/>
		<path fill="#C8CAC9" d="M1,87.5h0.5h2.368h0.5c0-4.768,3.865-8.631,8.632-8.631v-0.5V76v-0.5C6.373,75.5,1,80.873,1,87.5z"/>
		<path fill="#C8CAC9" d="M24.5,87.5h-2.367h-0.5c0,4.768-3.865,8.633-8.633,8.633v0.5V99v0.5c6.627,0,12-5.373,12-12H24.5z"/>
		<path fill="#C8CAC9" d="M13,75.5V76v2.369v0.5c4.768,0,8.633,3.863,8.633,8.631h0.5H24.5H25C25,80.873,19.627,75.5,13,75.5z"/>
	</g>
	<g>
		<path fill="none" d="M4.868,62.5h-0.5c0,4.768,3.865,8.633,8.632,8.633v-0.5C8.516,70.633,4.868,66.984,4.868,62.5z"/>
		<path fill="none" d="M13,70.633v0.5c4.768,0,8.633-3.865,8.633-8.633h-0.5C21.133,66.984,17.484,70.633,13,70.633z"/>
		<path fill="none" d="M13,54.369v-0.5c-4.768,0-8.632,3.863-8.632,8.631h0.5C4.868,58.017,8.516,54.369,13,54.369z"/>
		<path fill="none" d="M1,62.5H0.5C0.5,69.393,6.107,75,13,75v-0.5C6.373,74.5,1,69.127,1,62.5z"/>
		<path fill="none" d="M13,74.5V75c6.893,0,12.5-5.607,12.5-12.5H25C25,69.127,19.627,74.5,13,74.5z"/>
		<path fill="none" d="M13,50.5V50C6.107,50,0.5,55.607,0.5,62.5H1C1,55.873,6.373,50.5,13,50.5z"/>
		<path fill="none" d="M13,53.869v0.5c4.484,0,8.133,3.647,8.133,8.131h0.5C21.633,57.732,17.768,53.869,13,53.869z"/>
		<path fill="none" d="M13,50v0.5c6.627,0,12,5.373,12,12h0.5C25.5,55.607,19.893,50,13,50z"/>
		<path fill="#414247" d="M4.368,62.5h-0.5H1.5H1c0,6.627,5.373,12,12,12V74v-2.367v-0.5C8.232,71.133,4.368,67.268,4.368,62.5z"/>
		<path fill="#414247" d="M1,62.5h0.5h2.368h0.5c0-4.768,3.865-8.631,8.632-8.631v-0.5V51v-0.5C6.373,50.5,1,55.873,1,62.5z"/>
		<path fill="#C8CAC9" d="M24.5,62.5h-2.367h-0.5c0,4.768-3.865,8.633-8.633,8.633v0.5V74v0.5c6.627,0,12-5.373,12-12H24.5z"/>
		<path fill="#C8CAC9" d="M13,50.5V51v2.369v0.5c4.768,0,8.633,3.863,8.633,8.631h0.5H24.5H25C25,55.873,19.627,50.5,13,50.5z"/>
	</g>
	<g>
		<path fill="none" d="M4.868,37.5h-0.5c0,4.768,3.865,8.633,8.632,8.633v-0.5C8.516,45.633,4.868,41.984,4.868,37.5z"/>
		<path fill="none" d="M13,45.633v0.5c4.768,0,8.633-3.865,8.633-8.633h-0.5C21.133,41.984,17.484,45.633,13,45.633z"/>
		<path fill="none" d="M13,29.369v-0.5c-4.768,0-8.632,3.863-8.632,8.631h0.5C4.868,33.017,8.516,29.369,13,29.369z"/>
		<path fill="none" d="M1,37.5H0.5C0.5,44.393,6.107,50,13,50v-0.5C6.373,49.5,1,44.127,1,37.5z"/>
		<path fill="none" d="M13,49.5V50c6.893,0,12.5-5.607,12.5-12.5H25C25,44.127,19.627,49.5,13,49.5z"/>
		<path fill="none" d="M13,25.5V25C6.107,25,0.5,30.607,0.5,37.5H1C1,30.873,6.373,25.5,13,25.5z"/>
		<path fill="none" d="M13,28.869v0.5c4.484,0,8.133,3.647,8.133,8.131h0.5C21.633,32.732,17.768,28.869,13,28.869z"/>
		<path fill="none" d="M13,25v0.5c6.627,0,12,5.373,12,12h0.5C25.5,30.607,19.893,25,13,25z"/>
		<path fill="#414247" d="M4.368,37.5h-0.5H1.5H1c0,6.627,5.373,12,12,12V49v-2.367v-0.5C8.232,46.133,4.368,42.268,4.368,37.5z"/>
		<path fill="#414247" d="M1,37.5h0.5h2.368h0.5c0-4.768,3.865-8.631,8.632-8.631v-0.5V26v-0.5C6.373,25.5,1,30.873,1,37.5z"/>
		<path fill="#C8CAC9" d="M24.5,37.5h-2.367h-0.5c0,4.768-3.865,8.633-8.633,8.633v0.5V49v0.5c6.627,0,12-5.373,12-12H24.5z"/>
		<path fill="#414247" d="M13,25.5V26v2.369v0.5c4.768,0,8.633,3.863,8.633,8.631h0.5H24.5H25C25,30.873,19.627,25.5,13,25.5z"/>
	</g>
</g>
<g id="Layer_3">
</g>
</svg>
