<?xml version="1.0" encoding="utf-8"?>
<!-- Generator: Adobe Illustrator 16.0.0, SVG Export Plug-In . SVG Version: 6.00 Build 0)  -->
<!DOCTYPE svg PUBLIC "-//W3C//DTD SVG 1.1//EN" "http://www.w3.org/Graphics/SVG/1.1/DTD/svg11.dtd">
<svg version="1.1" id="Layer_1" xmlns="http://www.w3.org/2000/svg" xmlns:xlink="http://www.w3.org/1999/xlink" x="0px" y="0px"
	 width="16px" height="60px" viewBox="0 0 16 60" enable-background="new 0 0 16 60" xml:space="preserve">
<g>
	<g>
		<path fill="none" d="M3.121,7.5h-0.3c0,2.86,2.319,5.179,5.179,5.179v-0.3C5.31,12.379,3.121,10.19,3.121,7.5z"/>
		<path fill="none" d="M8,12.379v0.3c2.86,0,5.18-2.319,5.18-5.179h-0.3C12.88,10.19,10.69,12.379,8,12.379z"/>
		<path fill="none" d="M8,2.621v-0.3c-2.86,0-5.179,2.318-5.179,5.179h0.3C3.121,4.81,5.31,2.621,8,2.621z"/>
		<path fill="none" d="M0.8,7.5H0.5C0.5,11.636,3.864,15,8,15v-0.3C4.024,14.7,0.8,11.476,0.8,7.5z"/>
		<path fill="none" d="M8,14.7V15c4.136,0,7.5-3.364,7.5-7.5h-0.3C15.2,11.476,11.977,14.7,8,14.7z"/>
		<path fill="none" d="M8,0.3V0C3.864,0,0.5,3.364,0.5,7.5h0.3C0.8,3.523,4.024,0.3,8,0.3z"/>
		<path fill="none" d="M8,2.321v0.3c2.69,0,4.88,2.189,4.88,4.879h0.3C13.18,4.64,10.86,2.321,8,2.321z"/>
		<path fill="none" d="M8,0v0.3c3.977,0,7.2,3.224,7.2,7.2h0.3C15.5,3.364,12.136,0,8,0z"/>
		<path fill="#414247" d="M2.821,7.5h-0.3H1.1H0.8c0,3.976,3.224,7.2,7.2,7.2v-0.3v-1.42v-0.3C5.14,12.679,2.821,10.36,2.821,7.5z"
			/>
		<path fill="#414247" d="M0.8,7.5h0.3h1.42h0.3C2.821,4.64,5.14,2.321,8,2.321v-0.3V0.6V0.3C4.024,0.3,0.8,3.523,0.8,7.5z"/>
		<path fill="#414247" d="M14.9,7.5h-1.421h-0.3c0,2.86-2.319,5.179-5.18,5.179v0.3v1.42v0.3c3.977,0,7.2-3.224,7.2-7.2H14.9z"/>
		<path fill="#414247" d="M8,0.3v0.3v1.421v0.3c2.86,0,5.18,2.318,5.18,5.179h0.3H14.9h0.3C15.2,3.523,11.977,0.3,8,0.3z"/>
	</g>
	<g>
		<path fill="none" d="M3.121,52.5h-0.3c0,2.86,2.319,5.18,5.179,5.18v-0.3C5.31,57.38,3.121,55.19,3.121,52.5z"/>
		<path fill="none" d="M8,57.38v0.3c2.86,0,5.18-2.319,5.18-5.18h-0.3C12.88,55.19,10.69,57.38,8,57.38z"/>
		<path fill="none" d="M8,47.621v-0.3c-2.86,0-5.179,2.318-5.179,5.179h0.3C3.121,49.81,5.31,47.621,8,47.621z"/>
		<path fill="none" d="M0.8,52.5H0.5C0.5,56.636,3.864,60,8,60v-0.3C4.024,59.7,0.8,56.477,0.8,52.5z"/>
		<path fill="none" d="M8,59.7V60c4.136,0,7.5-3.364,7.5-7.5h-0.3C15.2,56.477,11.977,59.7,8,59.7z"/>
		<path fill="none" d="M8,45.3V45c-4.136,0-7.5,3.364-7.5,7.5h0.3C0.8,48.523,4.024,45.3,8,45.3z"/>
		<path fill="none" d="M8,47.321v0.3c2.69,0,4.88,2.188,4.88,4.879h0.3C13.18,49.64,10.86,47.321,8,47.321z"/>
		<path fill="none" d="M8,45v0.3c3.977,0,7.2,3.224,7.2,7.2h0.3C15.5,48.364,12.136,45,8,45z"/>
		<path fill="#414247" d="M2.821,52.5h-0.3H1.1H0.8c0,3.977,3.224,7.2,7.2,7.2v-0.3v-1.421v-0.3C5.14,57.68,2.821,55.36,2.821,52.5z
			"/>
		<path fill="#C8CACA" d="M0.8,52.5h0.3h1.42h0.3c0-2.86,2.319-5.179,5.179-5.179v-0.3V45.6v-0.3C4.024,45.3,0.8,48.523,0.8,52.5z"
			/>
		<path fill="#C8CACA" d="M14.9,52.5h-1.421h-0.3c0,2.86-2.319,5.18-5.18,5.18v0.3V59.4v0.3c3.977,0,7.2-3.224,7.2-7.2H14.9z"/>
		<path fill="#C8CACA" d="M8,45.3v0.3v1.422v0.3c2.86,0,5.18,2.318,5.18,5.179h0.3H14.9h0.3C15.2,48.523,11.977,45.3,8,45.3z"/>
	</g>
	<g>
		<path fill="none" d="M3.121,37.5h-0.3c0,2.86,2.319,5.18,5.179,5.18v-0.3C5.31,42.38,3.121,40.19,3.121,37.5z"/>
		<path fill="none" d="M8,42.38v0.3c2.86,0,5.18-2.319,5.18-5.18h-0.3C12.88,40.19,10.69,42.38,8,42.38z"/>
		<path fill="none" d="M8,32.621v-0.3c-2.86,0-5.179,2.318-5.179,5.179h0.3C3.121,34.81,5.31,32.621,8,32.621z"/>
		<path fill="none" d="M0.8,37.5H0.5C0.5,41.636,3.864,45,8,45v-0.3C4.024,44.7,0.8,41.477,0.8,37.5z"/>
		<path fill="none" d="M8,44.7V45c4.136,0,7.5-3.364,7.5-7.5h-0.3C15.2,41.477,11.977,44.7,8,44.7z"/>
		<path fill="none" d="M8,30.3V30c-4.136,0-7.5,3.364-7.5,7.5h0.3C0.8,33.523,4.024,30.3,8,30.3z"/>
		<path fill="none" d="M8,32.321v0.3c2.69,0,4.88,2.188,4.88,4.879h0.3C13.18,34.64,10.86,32.321,8,32.321z"/>
		<path fill="none" d="M8,30v0.3c3.977,0,7.2,3.224,7.2,7.2h0.3C15.5,33.364,12.136,30,8,30z"/>
		<path fill="#414247" d="M2.821,37.5h-0.3H1.1H0.8c0,3.977,3.224,7.2,7.2,7.2v-0.3v-1.421v-0.3C5.14,42.68,2.821,40.36,2.821,37.5z
			"/>
		<path fill="#414247" d="M0.8,37.5h0.3h1.42h0.3c0-2.86,2.319-5.179,5.179-5.179v-0.3V30.6v-0.3C4.024,30.3,0.8,33.523,0.8,37.5z"
			/>
		<path fill="#C8CACA" d="M14.9,37.5h-1.421h-0.3c0,2.86-2.319,5.18-5.18,5.18v0.3V44.4v0.3c3.977,0,7.2-3.224,7.2-7.2H14.9z"/>
		<path fill="#C8CACA" d="M8,30.3v0.3v1.421v0.3c2.86,0,5.18,2.318,5.18,5.179h0.3H14.9h0.3C15.2,33.523,11.977,30.3,8,30.3z"/>
	</g>
	<g>
		<path fill="none" d="M3.121,22.5h-0.3c0,2.86,2.319,5.18,5.179,5.18v-0.3C5.31,27.38,3.121,25.19,3.121,22.5z"/>
		<path fill="none" d="M8,27.38v0.3c2.86,0,5.18-2.319,5.18-5.18h-0.3C12.88,25.19,10.69,27.38,8,27.38z"/>
		<path fill="none" d="M8,17.622v-0.3c-2.86,0-5.179,2.318-5.179,5.179h0.3C3.121,19.81,5.31,17.622,8,17.622z"/>
		<path fill="none" d="M0.8,22.5H0.5C0.5,26.636,3.864,30,8,30v-0.3C4.024,29.7,0.8,26.476,0.8,22.5z"/>
		<path fill="none" d="M8,29.7V30c4.136,0,7.5-3.364,7.5-7.5h-0.3C15.2,26.476,11.977,29.7,8,29.7z"/>
		<path fill="none" d="M8,15.3V15c-4.136,0-7.5,3.364-7.5,7.5h0.3C0.8,18.524,4.024,15.3,8,15.3z"/>
		<path fill="none" d="M8,17.321v0.3c2.69,0,4.88,2.188,4.88,4.878h0.3C13.18,19.64,10.86,17.321,8,17.321z"/>
		<path fill="none" d="M8,15v0.3c3.977,0,7.2,3.224,7.2,7.2h0.3C15.5,18.364,12.136,15,8,15z"/>
		<path fill="#414247" d="M2.821,22.5h-0.3H1.1H0.8c0,3.976,3.224,7.2,7.2,7.2v-0.3v-1.42v-0.3C5.14,27.68,2.821,25.36,2.821,22.5z"
			/>
		<path fill="#414247" d="M0.8,22.5h0.3h1.42h0.3c0-2.86,2.319-5.179,5.179-5.179v-0.3V15.6v-0.3C4.024,15.3,0.8,18.524,0.8,22.5z"
			/>
		<path fill="#C8CACA" d="M14.9,22.5h-1.421h-0.3c0,2.86-2.319,5.18-5.18,5.18v0.3v1.42v0.3c3.977,0,7.2-3.224,7.2-7.2H14.9z"/>
		<path fill="#414247" d="M8,15.3v0.3v1.421v0.3c2.86,0,5.18,2.318,5.18,5.179h0.3H14.9h0.3C15.2,18.524,11.977,15.3,8,15.3z"/>
	</g>
</g>
</svg>
